<svg width="32" height="32" viewBox="0 0 32 32" fill="none" xmlns="http://www.w3.org/2000/svg">
  <rect width="32" height="32" rx="8" fill="#465FFF"/>
  <path
    d="M8 18.5C8 17.6716 8.67157 17 9.5 17H10.2L11.4 13.8C11.6 13.2 12.2 12.8 12.8 12.8H19.2C19.8 12.8 20.4 13.2 20.6 13.8L21.8 17H22.5C23.3284 17 24 17.6716 24 18.5V20.5C24 21.3284 23.3284 22 22.5 22H21.7C21.2544 23.0544 20.2155 23.8 19 23.8C17.7845 23.8 16.7456 23.0544 16.3 22H15.7C15.2544 23.0544 14.2155 23.8 13 23.8C11.7845 23.8 10.7456 23.0544 10.3 22H9.5C8.67157 22 8 21.3284 8 20.5V18.5Z"
    fill="white"
  />
  <circle cx="13" cy="20.5" r="1.5" fill="#465FFF"/>
  <circle cx="19" cy="20.5" r="1.5" fill="#465FFF"/>
  <path d="M12 15.5H20L19.1 14H12.9L12 15.5Z" fill="white" fill-opacity="0.9"/>
</svg>
